User Type,Username,Date,Text
[V],FatFreddy31,2010-07-31T19:48Z,"Volledige Info:

Nederland
Thriller
112 minuten

geregisseerd door Elbert van Strien
met Hadewych Minis, Barry Atsma en Isabelle Stokkel

Nine-year-old Lisa discovers her sinister new friend is the ghost of the dead twin of Lisa's mother. Lisa's father also begins to suspect his wife of hiding a terrible secret, resulting in deadly consequences... 

http://www.imdb.com/title/tt1223980/

Dutch audio. No subtitles.

Psychologische thriller over een Nederlands gezin dat naar Belgi? verhuist nadat moeder Christine (Hadewych Minis) haar ouderlijk huis heeft ge?rfd. De negenjarige dochter Lisa (Isabelle Stokkel) ontdekt een vreemd en sinister meisje, Karen, in de kelder van het huis. Karen (Charlotte Arnoldy) vertelt haar dat ze de dode tweelingzus is van Lisa?s moeder, en beweert een gruwelijk geheim van haar te weten. Als ook Lisa?s vader Paul (Barry Atsma) ontdekt dat het verleden van zijn vrouw schimmig is, heeft dit grote gevolgen...

http://www.moviemeter.nl/film/45639

Nederlands gesproken

General
Complete name                    : Zwart Water-AC3-XviD-DVDRip[Ned]2010 2Lions-Team\Zwart Water-AC3-XviD-DVDRip[Ned]2010 2Lions-Team.avi
Format                           : AVI
Format/Info                      : Audio Video Interleave
File size                        : 1.36 GiB
Duration                         : 1h 47mn
Overall bit rate                 : 1 816 Kbps
Writing application              : VirtualDubMod 1.5.4.1 (build 2178/release)
Writing library                  : VirtualDubMod build 2178/release

Video
ID                               : 0
Format                           : MPEG-4 Visual
Format profile                   : Simple@L3
Format settings, BVOP            : No
Format settings, QPel            : No
Format settings, GMC             : No warppoints
Format settings, Matrix          : Default (H.263)
Codec ID                         : XVID
Codec ID/Hint                    : XviD
Duration                         : 1h 47mn
Bit rate                         : 1 358 Kbps
Width                            : 720 pixels
Height                           : 304 pixels
Display aspect ratio             : 2.35:1
Frame rate                       : 25.000 fps
Resolution                       : 8 bits
Colorimetry                      : 4:2:0
Scan type                        : Progressive
Bits/(Pixel*Frame)               : 0.248
Stream size                      : 1.02 GiB (75%)
Writing library                  : XviD 1.1.2 (UTC 2006-11-01)

Audio
ID                               : 1
Format                           : AC-3
Format/Info                      : Audio Coding 3
Format_Settings_ModeExtension    : CM (complete main)
Codec ID                         : 2000
Duration                         : 1h 47mn
Bit rate mode                    : Constant
Bit rate                         : 448 Kbps
Channel(s)                       : 6 channels
Channel positions                : Front: L C R, Side: L R, LFE
Sampling rate                    : 48.0 KHz
Stream size                      : 344 MiB (25%)
Alignment                        : Split accross interleaves
Interleave, duration             : 40 ms (1.00 video frame)
Interleave, preload duration     : 500 ms

Thanks to Fast_Release Team.

Brought to you by 
2Lions Team

meer zien??
Kom dan eens kijken op ons forum 

http://www.2lions-site.nl

2Lions the site to be for all your Dutch MOVIES and more

******************************************

DON T HIT AND RUN Niet gelijk afhaken als de FILM binnen is blijf seeden. 

Don`t quit after you finished the download, but keep seeding

There are fake torrents from uploaders who use our team name.
Those are not ours, or members from our team.
We 2Lions-Team are not responsible for the fake posts on our name

Wij 2Lions-Team zijn niet verantwoordelijk voor die zieke FAKE posten die op onze naam worden gedaan

Please check our site !!!

to the fakers , get a life !!!"
